<svg xmlns="http://www.w3.org/2000/svg" data-name="Layer 1" viewBox="0 0 32 32"><path fill="#ffdaa7" d="M7.26121,9.5H8.46471a1.5,1.5,0,0,1,1.5,1.5v0a1.5,1.5,0,0,1-1.5,1.5H7.26121a0,0,0,0,1,0,0v-3a0,0,0,0,1,0,0Z" transform="rotate(180 8.613 11)"/><path fill="#ffdaa7" d="M21.87059,9.5H23A1.5,1.5,0,0,1,24.5,11v0A1.5,1.5,0,0,1,23,12.5H21.87059a0,0,0,0,1,0,0v-3A0,0,0,0,1,21.87059,9.5Z"/><path fill="#ffdaa7" d="M9.5,10.97v.01c.27,5.07,3.79,8.5,6.5,8.46,2.71.04,6.23-3.39,6.5-8.46V7a6.5,6.5,0,0,0-13,0Z"/><path fill="#37b678" d="M29.5,26.31V31.5H2.5V26.31a5.99044,5.99044,0,0,1,4.7-5.85L16,18.5l8.8,1.96A5.99044,5.99044,0,0,1,29.5,26.31Z"/><path fill="#ffdaa7" d="M13,16.5h6a0,0,0,0,1,0,0v2a3,3,0,0,1-3,3h0a3,3,0,0,1-3-3v-2A0,0,0,0,1,13,16.5Z"/><path fill="#8b6847" d="M19.47076 14.16541A8.87342 8.87342 0 0 0 16 13.493a8.87342 8.87342 0 0 0-3.47076.67242c-1.14392 0-3.05683-3.71767-3.02894-3.18394C9.7656 16.05312 13.28652 19.47557 16 19.436c2.71348.03961 6.2344-3.38284 6.4997-8.45449C22.5276 10.44774 20.61468 14.16541 19.47076 14.16541zM22.5 9.02685c-.70023-.13519-1.61532-.30471-2.36909-.51636a27.48161 27.48161 0 0 1-6.7934-2.953A14.24423 14.24423 0 0 1 9.83591 8.10707c-.04841.02151-.28751.13416-.33591.15567V7a6.5 6.5 0 1 1 13 0V9.02685z"/><path d="M15,16h2a.5.5,0,0,0,0-1H15a.5.5,0,0,0,0,1Zm9.90869,3.97217-5.69348-1.2655c.09961-.07684.20068-.14856.2984-.23193A10.266,10.266,0,0,0,22.71405,13H23a2,2,0,0,0,0-4V7A7,7,0,0,0,9,7V9H8.75977a2,2,0,0,0,0,4h.52618a10.51277,10.51277,0,0,0,2.64893,4.9646,8.10388,8.10388,0,0,0,.84485.7431l-5.68793,1.264A6.456,6.456,0,0,0,2,26.31006V31.5a.49971.49971,0,0,0,.5.5h27a.49971.49971,0,0,0,.5-.5V26.31006A6.45513,6.45513,0,0,0,24.90869,19.97217Zm-1.91034-8.97009L23,10.97021V10a1,1,0,0,1,0,2h-.09766c.04535-.32477.079-.65515.09668-.99219ZM8.75977,12a1,1,0,0,1,0-2H9v.98l.001.03125c.00543.10168.02039.19922.02844.2998.01831.23175.0368.46326.0683.689ZM10,7A6,6,0,1,1,22,7V8.4209c-.56738-.11084-1.19824-.2417-1.73389-.39209a27.00154,27.00154,0,0,1-6.66992-2.89893.49974.49974,0,0,0-.60889.0708A13.76628,13.76628,0,0,1,10,7.45459Zm0,1.58173.06348-.02948a14.49128,14.49128,0,0,0,3.34521-2.37012A27.97624,27.97624,0,0,0,19.99561,8.9917c.636.17865,1.37183.32544,2.00439.44757v1.26947a7.3453,7.3453,0,0,0-.48486.657c-.96826,1.42139-1.63135,2.18994-1.97412,2.28906a9.11443,9.11443,0,0,0-3.53613-.66162,9.17825,9.17825,0,0,0-3.5459.66162c-.34277-.09912-1.00586-.86768-1.97412-2.28906A7.24687,7.24687,0,0,0,10,10.70923Zm1.244,6.827-.04041-.074a9.39735,9.39735,0,0,1-.53485-1.15723c-.00952-.025-.01764-.05151-.027-.07672a10.06213,10.06213,0,0,1-.39716-1.33319c.793,1.09473,1.53516,1.89795,2.28467,1.89795a.49347.49347,0,0,0,.19092-.03809,8.274,8.274,0,0,1,3.28467-.63428,8.25176,8.25176,0,0,1,3.2749.63428.49347.49347,0,0,0,.19092.03809c.7489,0,1.49054-.802,2.28271-1.89532l-.00885.03375a10.09628,10.09628,0,0,1-.36841,1.2395c-.01855.05109-.0351.10419-.05432.15454a9.495,9.495,0,0,1-.51636,1.12366c-.01569.02924-.03162.058-.04761.087-1.254,2.25293-3.20636,3.52789-4.72614,3.52789l-.03906-.00049C14.47394,18.92291,12.50647,17.666,11.244,15.40869Zm7.03418,4.11426a2.49547,2.49547,0,0,1-4.5564,0l.27478-.061a4.57966,4.57966,0,0,0,1.94141.47852h.10937a4.60587,4.60587,0,0,0,1.95007-.47986ZM29,31H24V27.5a.5.5,0,0,0-1,0V31H9V27.5a.5.5,0,0,0-1,0V31H3V26.31006a5.46239,5.46239,0,0,1,4.30908-5.3623l5.4234-1.205a3.49364,3.49364,0,0,0,6.535.00006l5.42389,1.20538A5.46152,5.46152,0,0,1,29,26.31006Z"/></svg>